<svg width="25" height="26" viewBox="0 0 25 26" fill="none" xmlns="http://www.w3.org/2000/svg">
<path d="M7.93056 0.606306C8.06104 0.605427 8.19151 0.604547 8.32594 0.603641C8.46976 0.603714 8.61358 0.603809 8.75741 0.603925C8.90948 0.603307 9.06156 0.602606 9.21363 0.601827C9.62615 0.600007 10.0387 0.599522 10.4512 0.599391C10.7091 0.599244 10.9671 0.598804 11.225 0.598258C12.1255 0.596351 13.026 0.595509 13.9265 0.595671C14.7648 0.595795 15.6032 0.59362 16.4415 0.590364C17.1621 0.587665 17.8827 0.586563 18.6033 0.586694C19.0334 0.586747 19.4633 0.586164 19.8934 0.583978C20.298 0.581976 20.7026 0.58197 21.1073 0.583466C21.2554 0.583681 21.4035 0.583199 21.5515 0.581949C22.3701 0.575488 22.9766 0.592188 23.6717 1.04616C23.8839 1.25592 23.8839 1.25592 24.026 1.46488C24.0748 1.53411 24.1236 1.60333 24.1738 1.67465C24.4612 2.15894 24.4507 2.66489 24.3932 3.21066C24.2082 3.82166 23.8799 4.19159 23.3625 4.55059C22.9719 4.73932 22.6652 4.7813 22.2332 4.77687C22.1186 4.7762 22.004 4.77554 21.8859 4.77485C21.7673 4.77313 21.6487 4.7714 21.5265 4.76962C21.406 4.76869 21.2854 4.76776 21.1612 4.7668C20.8642 4.76438 20.5673 4.76099 20.2704 4.75674C20.2707 4.81378 20.2711 4.87083 20.2715 4.9296C20.2806 6.32079 20.2874 7.71197 20.2917 9.10318C20.2939 9.77598 20.2968 10.4488 20.3015 11.1215C20.3059 11.7711 20.3084 12.4207 20.3095 13.0703C20.3102 13.3178 20.3117 13.5653 20.3139 13.8128C20.3169 14.1602 20.3173 14.5075 20.3172 14.8549C20.3186 14.9566 20.3201 15.0584 20.3217 15.1632C20.317 15.9456 20.1459 16.5764 19.6366 17.1829C19.5609 17.2468 19.4852 17.3107 19.4071 17.3766C19.2943 17.4752 19.2943 17.4752 19.1792 17.5759C18.675 17.9161 18.1965 17.9753 17.5977 17.97C17.4649 17.9694 17.332 17.9687 17.1951 17.968C17.0563 17.9663 16.9176 17.9646 16.7788 17.9628C16.6376 17.9618 16.4964 17.9608 16.3552 17.96C16.0111 17.9575 15.667 17.9542 15.3229 17.9499C15.3238 18.0163 15.3247 18.0827 15.3257 18.1511C15.3348 18.845 15.341 19.5389 15.3455 20.2329C15.3476 20.4915 15.3504 20.7502 15.354 21.0088C15.359 21.3816 15.3613 21.7543 15.3632 22.1271C15.3653 22.2418 15.3674 22.3565 15.3696 22.4747C15.3698 23.3071 15.2327 23.9567 14.6892 24.6041C14.6134 24.668 14.5377 24.7319 14.4597 24.7977C14.3469 24.8964 14.3469 24.8964 14.2318 24.997C13.6196 25.4101 13.0069 25.4017 12.295 25.401C12.1887 25.4017 12.0823 25.4024 11.9728 25.4031C11.622 25.4051 11.2713 25.4055 10.9206 25.4057C10.6762 25.4064 10.4318 25.407 10.1874 25.4078C9.67531 25.409 9.16325 25.4094 8.65119 25.4093C7.9959 25.4092 7.34066 25.4121 6.68539 25.4156C6.18066 25.4179 5.67594 25.4183 5.17121 25.4182C4.92966 25.4185 4.68811 25.4194 4.44656 25.421C4.10835 25.423 3.77023 25.4224 3.43201 25.4211C3.33282 25.4223 3.23363 25.4235 3.13143 25.4247C2.39275 25.4178 1.84853 25.2483 1.28375 24.7635C1.22914 24.6983 1.17453 24.633 1.11827 24.5658C1.06233 24.5014 1.0064 24.4369 0.948766 24.3705C0.461643 23.6466 0.435408 23.0346 0.438867 22.1801C0.438159 22.0577 0.437452 21.9352 0.436723 21.8091C0.435165 21.4749 0.434994 21.1408 0.435583 20.8067C0.435903 20.527 0.435273 20.2473 0.434652 19.9676C0.433206 19.3074 0.433363 18.6472 0.434538 17.987C0.435722 17.3076 0.434271 16.6281 0.431508 15.9487C0.42922 15.3637 0.428541 14.7788 0.429145 14.1939C0.429492 13.8452 0.42925 13.4966 0.42747 13.1479C0.425934 12.7588 0.427034 12.3699 0.428801 11.9808C0.427804 11.8664 0.426808 11.7519 0.425781 11.634C0.433454 10.8259 0.567366 10.2771 1.11787 9.65667C1.19453 9.59156 1.2712 9.52646 1.35018 9.45938C1.46478 9.35933 1.46478 9.35933 1.58169 9.25726C2.06726 8.90844 2.46983 8.85443 3.06255 8.85947C3.13045 8.85976 3.19836 8.86005 3.26832 8.86035C3.4836 8.8615 3.69884 8.86409 3.9141 8.86672C4.06072 8.86775 4.20735 8.86869 4.35397 8.86954C4.71199 8.8718 5.06998 8.87535 5.42797 8.8796C5.42706 8.80137 5.42614 8.72314 5.4252 8.64254C5.41691 7.9026 5.41065 7.16267 5.40661 6.42269C5.40447 6.04233 5.40156 5.662 5.39687 5.28166C5.39237 4.91408 5.38992 4.54655 5.38886 4.17895C5.38773 3.97159 5.38452 3.76424 5.38126 3.5569C5.38105 2.67146 5.46181 2.09111 6.06533 1.41093C6.14199 1.34583 6.21866 1.28072 6.29764 1.21365C6.37404 1.14695 6.45044 1.08025 6.52915 1.01153C6.98586 0.683442 7.37304 0.608007 7.93056 0.606306Z" fill="#0F5952"/>
<path d="M3.67206 9.66946C3.85162 9.66939 3.85162 9.66939 4.03481 9.66932C4.43024 9.66954 4.82562 9.67194 5.22103 9.67437C5.4953 9.67494 5.76955 9.6754 6.04382 9.67569C6.69175 9.67665 7.33967 9.67919 7.9876 9.68229C8.72543 9.68575 9.46326 9.68745 10.2011 9.689C11.7185 9.69223 13.2358 9.69767 14.7532 9.70456C14.7365 9.76124 14.7197 9.81792 14.7025 9.87632C14.6436 10.1467 14.637 10.3903 14.6366 10.667C14.6362 10.7786 14.6358 10.8901 14.6353 11.0051C14.6354 11.1269 14.6354 11.2488 14.6355 11.3744C14.6351 11.5031 14.6348 11.6319 14.6344 11.7646C14.6337 12.0444 14.6331 12.3241 14.6327 12.6039C14.6321 13.0466 14.6304 13.4893 14.6285 13.932C14.6278 14.0837 14.6272 14.2354 14.6265 14.3871C14.6262 14.463 14.6259 14.539 14.6255 14.6172C14.6212 15.6476 14.6178 16.6779 14.6165 17.7083C14.6157 18.4037 14.6133 19.0991 14.6094 19.7945C14.6073 20.1623 14.6061 20.5301 14.6066 20.8979C14.6071 21.3082 14.6045 21.7185 14.6017 22.1289C14.6024 22.2503 14.603 22.3718 14.6037 22.4969C14.5963 23.1429 14.5737 23.5433 14.1348 24.0315C13.7225 24.4036 13.4212 24.5584 12.8677 24.5634C12.7322 24.565 12.7322 24.565 12.5941 24.5666C12.4953 24.5672 12.3965 24.5678 12.2947 24.5684C12.1904 24.5694 12.0861 24.5704 11.9787 24.5715C11.633 24.5745 11.2873 24.5767 10.9415 24.5787C10.7644 24.5797 10.7644 24.5797 10.5837 24.5807C9.95855 24.5841 9.3334 24.5866 8.70825 24.5886C8.19105 24.5905 7.67391 24.5941 7.15673 24.5992C6.53217 24.6054 5.90766 24.6086 5.28306 24.6096C5.04525 24.6105 4.80743 24.6124 4.56964 24.6154C4.23629 24.6194 3.90316 24.6195 3.56979 24.6187C3.47204 24.6208 3.37429 24.6228 3.27358 24.625C2.66602 24.6184 2.29214 24.5018 1.82894 24.1C1.26214 23.5139 1.30795 22.8779 1.3089 22.108C1.30786 21.9876 1.30682 21.8672 1.30575 21.7432C1.30282 21.3456 1.30221 20.948 1.30188 20.5504C1.30114 20.3437 1.30039 20.1369 1.29957 19.9301C1.29706 19.2801 1.2963 18.6302 1.29652 17.9802C1.2967 17.3112 1.29344 16.6423 1.28856 15.9733C1.28451 15.3975 1.28286 14.8218 1.28305 14.2461C1.28313 13.9028 1.28198 13.5596 1.27898 13.2163C1.27594 12.8332 1.27684 12.4502 1.2787 12.067C1.27697 11.9543 1.27523 11.8416 1.27344 11.7255C1.28264 10.9793 1.43407 10.5394 1.97225 10.0138C2.45069 9.57484 3.05857 9.66341 3.67206 9.66946Z" fill="#F6F6F6"/>
<path d="M15.7607 9.80743C16.0209 9.64102 16.3756 9.63572 16.6285 9.81303V9.81303C16.9337 10.027 17.0813 10.4097 17.0793 10.7824C17.0791 10.8201 17.0787 10.8627 17.0782 10.9119C17.0783 10.9793 17.0784 11.0467 17.0785 11.1162C17.0781 11.3377 17.0741 11.5589 17.07 11.7804C17.0691 11.9345 17.0684 12.0886 17.0678 12.2427C17.0659 12.6472 17.0608 13.0516 17.0551 13.4561C17.0498 13.8692 17.0475 14.2824 17.0449 14.6956C17.0394 15.5055 17.0303 16.3154 17.0197 17.1252C16.4755 17.1252 15.9313 17.1252 15.3706 17.1252C15.3589 16.2337 15.3495 15.3423 15.3439 14.4507C15.3412 14.0367 15.3375 13.6228 15.3317 13.2088C15.3261 12.8091 15.323 12.4095 15.3217 12.0098C15.3207 11.8575 15.3189 11.7052 15.3161 11.5528C15.3123 11.3391 15.3118 11.1256 15.3121 10.9119V10.9119C15.3098 10.6669 15.3133 10.414 15.4205 10.1937C15.5001 10.03 15.6124 9.90228 15.7607 9.80743Z" fill="#F4F5F5"/>
<path d="M21.8962 1.43286C22.0318 1.4302 22.1675 1.42754 22.3072 1.4248C22.8257 1.47079 23.0762 1.6436 23.4422 1.99975C23.6681 2.36779 23.6685 2.57864 23.6162 3.0047C23.4359 3.49812 23.2596 3.70284 22.7916 3.93234C22.506 3.96745 22.506 3.96745 22.2001 3.96254C22.0352 3.96105 22.0352 3.96105 21.867 3.95952C21.6965 3.95564 21.6965 3.95564 21.5225 3.95167C21.4069 3.95028 21.2912 3.94888 21.172 3.94744C20.8873 3.94381 20.6026 3.93873 20.3179 3.93234C20.2114 2.28928 20.2114 2.28928 20.6142 1.82582C21.0186 1.45174 21.361 1.43694 21.8962 1.43286Z" fill="#F4F5F4"/>
<ellipse cx="9.13694" cy="3.98362" rx="1.08226" ry="1.08225" fill="white"/>
<ellipse cx="4.28929" cy="11.8176" rx="1.08226" ry="1.08225" fill="#0F5952"/>
<rect x="10.9375" y="3.62305" width="5.86222" height="0.631314" rx="0.315657" fill="white"/>
<rect x="6.09375" y="11.4561" width="5.86222" height="0.631314" rx="0.315657" fill="#0F5952"/>
<ellipse cx="9.13694" cy="7.17893" rx="1.08226" ry="1.08225" fill="white"/>
<rect x="10.9375" y="6.81836" width="5.86222" height="0.631314" rx="0.315657" fill="white"/>
<ellipse cx="4.28929" cy="15.0119" rx="1.08226" ry="1.08225" fill="#0F5952"/>
<rect x="6.09375" y="14.6514" width="5.86222" height="0.631314" rx="0.315657" fill="#0F5952"/>
<ellipse cx="10.2163" cy="20.2172" rx="3.29831" ry="3.29829" fill="#EFBD25"/>
<path d="M11.3873 20.2553C11.3873 20.3982 11.3502 20.5329 11.276 20.6593C11.2045 20.783 11.0973 20.8861 10.9544 20.9685C10.8142 21.0483 10.6479 21.095 10.4555 21.1087V21.4427H10.1917V21.1046C9.91682 21.0799 9.69556 20.9974 9.5279 20.8572C9.36024 20.7143 9.27365 20.5219 9.26816 20.28H9.88659C9.90308 20.4779 10.0048 20.5975 10.1917 20.6387V19.8512C9.99378 19.8018 9.83437 19.7523 9.71343 19.7028C9.59249 19.6533 9.48804 19.5736 9.40009 19.4637C9.31214 19.3538 9.26816 19.204 9.26816 19.0143C9.26816 18.7752 9.35336 18.58 9.52378 18.4289C9.69694 18.2777 9.91957 18.1911 10.1917 18.1691V17.8352H10.4555V18.1691C10.7194 18.1911 10.9297 18.2708 11.0863 18.4082C11.2458 18.5457 11.3351 18.7353 11.3543 18.9772H10.7318C10.7235 18.8975 10.6947 18.8288 10.6452 18.7711C10.5985 18.7106 10.5353 18.668 10.4555 18.6432V19.4225C10.6617 19.4747 10.8239 19.5255 10.942 19.575C11.063 19.6217 11.1674 19.7001 11.2554 19.81C11.3433 19.9172 11.3873 20.0656 11.3873 20.2553ZM9.8701 18.9854C9.8701 19.0761 9.89758 19.1504 9.95256 19.2081C10.0075 19.263 10.0872 19.3084 10.1917 19.3441V18.6309C10.0927 18.6446 10.0144 18.6817 9.95668 18.7422C9.89896 18.8027 9.8701 18.8837 9.8701 18.9854ZM10.4555 20.647C10.56 20.6277 10.6411 20.5851 10.6988 20.5192C10.7593 20.4532 10.7895 20.3735 10.7895 20.28C10.7895 20.1893 10.7606 20.1165 10.7029 20.0615C10.6452 20.0065 10.5627 19.9612 10.4555 19.9255V20.647Z" fill="#0F5952"/>
</svg>
