<svg width="26" height="25" viewBox="0 0 26 25" fill="none" xmlns="http://www.w3.org/2000/svg">
<path d="M25.1094 12.5C25.1094 19.1878 19.6878 24.6094 13 24.6094C6.31216 24.6094 0.890625 19.1878 0.890625 12.5C0.890625 5.81216 6.31216 0.390625 13 0.390625C19.6878 0.390625 25.1094 5.81216 25.1094 12.5ZM11.5993 18.9118L20.5837 9.92744C20.8888 9.62236 20.8888 9.12769 20.5837 8.82261L19.4789 7.71777C19.1738 7.41265 18.6791 7.41265 18.374 7.71777L11.0469 15.0448L7.62603 11.624C7.32095 11.3189 6.82627 11.3189 6.52114 11.624L5.41631 12.7288C5.11123 13.0339 5.11123 13.5286 5.41631 13.8336L10.4944 18.9118C10.7996 19.2169 11.2942 19.2169 11.5993 18.9118Z" fill="black"/>
</svg>
