<svg width="30" height="42" viewBox="0 0 30 42" fill="none" xmlns="http://www.w3.org/2000/svg">
<path d="M4.65749 38.0984L8.09402 41.2057L14.9877 24.0299L6.97595 20.7031L0 37.9406L4.65749 38.0984Z" fill="url(#paint0_linear_1250_1493)"/>
<path d="M1.08181 37.9811L7.15919 22.9591L7.92743 21.0865L7.48843 20.915L6.78192 22.5819L0.574219 37.9605L1.08181 37.9811Z" fill="url(#paint1_linear_1250_1493)"/>
<path d="M7.67804 40.8281L13.7966 25.7238L14.5717 23.8512L14.1327 23.6729L13.4193 25.3465L7.30078 40.4988L7.67804 40.8281Z" fill="url(#paint2_linear_1250_1493)"/>
<path d="M25.2761 38.8914L21.8396 41.9987L14.9459 24.8229L22.9576 21.4961L29.9336 38.7336L25.2761 38.8914Z" fill="url(#paint3_linear_1250_1493)"/>
<path d="M28.8518 38.776L22.7744 23.754L22.0062 21.8814L22.4452 21.71L23.1517 23.3768L29.3594 38.7554L28.8518 38.776Z" fill="url(#paint4_linear_1250_1493)"/>
<path d="M22.2555 41.623L16.137 26.5187L15.3619 24.6461L15.8009 24.4678L16.5143 26.1415L22.6328 41.2937L22.2555 41.623Z" fill="url(#paint5_linear_1250_1493)"/>
<g filter="url(#filter0_d_1250_1493)">
<path d="M11.8426 0.444726L11.4437 1.00229L11.7407 2.32594L13.5698 1.91559L13.3445 0.911211L11.8426 0.444726Z" fill="url(#paint6_linear_1250_1493)"/>
<path d="M10.5553 0.830773L10.2001 1.41718L10.5973 2.71428L12.3898 2.1654L12.0884 1.18117L10.5553 0.830773Z" fill="url(#paint7_linear_1250_1493)"/>
<path d="M9.34202 1.33026L9.0489 1.94999L9.57703 3.19952L11.3038 2.4697L10.903 1.52157L9.34202 1.33026Z" fill="url(#paint8_linear_1250_1493)"/>
<path d="M8.13156 1.95561L7.91385 2.60568L8.58615 3.78392L10.2144 2.85486L9.70423 1.96082L8.13156 1.95561Z" fill="url(#paint9_linear_1250_1493)"/>
<path d="M7.03492 2.70881L6.90648 3.38223L7.73092 4.45951L9.21962 3.32022L8.59404 2.50278L7.03492 2.70881Z" fill="url(#paint10_linear_1250_1493)"/>
<path d="M5.98313 3.55215L5.93614 4.23609L6.88347 5.20707L8.22527 3.89794L7.50644 3.16117L5.98313 3.55215Z" fill="url(#paint11_linear_1250_1493)"/>
<path d="M5.05554 4.5128L5.06238 5.19833L6.08301 6.09194L7.3179 4.68153L6.54346 4.00346L5.05554 4.5128Z" fill="url(#paint12_linear_1250_1493)"/>
<path d="M4.22788 5.56508L4.29425 6.24742L5.38865 7.04899L6.49635 5.53663L5.66592 4.9284L4.22788 5.56508Z" fill="url(#paint13_linear_1250_1493)"/>
<path d="M3.50109 6.69429L3.64785 7.36396L4.82953 8.03019L5.7502 6.39722L4.85355 5.89168L3.50109 6.69429Z" fill="url(#paint14_linear_1250_1493)"/>
<path d="M2.91173 7.89115L3.13097 8.54071L4.37852 9.07348L5.11477 7.34948L4.16813 6.94521L2.91173 7.89115Z" fill="url(#paint15_linear_1250_1493)"/>
<path d="M2.43715 9.17746L2.73116 9.79677L4.03265 10.1793L4.56132 8.3808L3.57376 8.09051L2.43715 9.17746Z" fill="url(#paint16_linear_1250_1493)"/>
<path d="M2.12336 10.4474L2.45742 11.046L3.78124 11.3423L4.1906 9.51287L3.1861 9.28809L2.12336 10.4474Z" fill="url(#paint17_linear_1250_1493)"/>
<path d="M1.91433 11.7894L2.32619 12.3375L3.67788 12.4522L3.83642 10.5843L2.81076 10.4972L1.91433 11.7894Z" fill="url(#paint18_linear_1250_1493)"/>
<path d="M1.85287 13.1196L2.31219 13.6285L3.66872 13.6216L3.65918 11.747L2.62985 11.7523L1.85287 13.1196Z" fill="url(#paint19_linear_1250_1493)"/>
<path d="M1.94636 14.4622L2.46123 14.9148L3.80794 14.7518L3.58262 12.8907L2.56074 13.0145L1.94636 14.4622Z" fill="url(#paint20_linear_1250_1493)"/>
<path d="M2.17947 15.7978L2.72884 16.2079L4.05824 15.9379L3.68505 14.1007L2.67631 14.3057L2.17947 15.7978Z" fill="url(#paint21_linear_1250_1493)"/>
<path d="M2.54879 17.0813L3.1495 17.4116L4.42891 16.9607L3.80574 15.1927L2.83494 15.5349L2.54879 17.0813Z" fill="url(#paint22_linear_1250_1493)"/>
<path d="M3.0327 18.3243L3.66342 18.593L4.89134 18.0164L4.09456 16.3195L3.16282 16.757L3.0327 18.3243Z" fill="url(#paint23_linear_1250_1493)"/>
<path d="M3.65495 19.5202L4.30779 19.7295L5.47722 19.042L4.52716 17.4259L3.6398 17.9476L3.65495 19.5202Z" fill="url(#paint24_linear_1250_1493)"/>
<path d="M4.39828 20.6329L5.06561 20.7899L6.17707 20.0121L5.10229 18.4762L4.25892 19.0664L4.39828 20.6329Z" fill="url(#paint25_linear_1250_1493)"/>
<path d="M5.28657 21.7296L5.96814 21.8036L6.9757 20.8952L5.72048 19.5029L4.95595 20.1921L5.28657 21.7296Z" fill="url(#paint26_linear_1250_1493)"/>
<path d="M6.21388 22.5907L6.8992 22.609L7.82963 21.6219L6.46543 20.3361L5.75943 21.0852L6.21388 22.5907Z" fill="url(#paint27_linear_1250_1493)"/>
<path d="M7.25228 23.4218L7.93283 23.339L8.70791 22.2257L7.1694 21.1546L6.58128 21.9994L7.25228 23.4218Z" fill="url(#paint28_linear_1250_1493)"/>
<path d="M8.35506 24.1473L9.02869 24.0199L9.72884 22.858L8.12318 21.8905L7.59192 22.7721L8.35506 24.1473Z" fill="url(#paint29_linear_1250_1493)"/>
<path d="M9.61815 24.745L10.2613 24.5077L10.7591 23.2458L9.01527 22.5579L8.63755 23.5155L9.61815 24.745Z" fill="url(#paint30_linear_1250_1493)"/>
<path d="M10.8928 25.2439L11.5204 24.9681L11.9407 23.6783L10.1583 23.0975L9.83939 24.0762L10.8928 25.2439Z" fill="url(#paint31_linear_1250_1493)"/>
<path d="M12.1629 25.5471L12.7546 25.2008L13.0233 23.8711L11.1859 23.4997L10.9819 24.5086L12.1629 25.5471Z" fill="url(#paint32_linear_1250_1493)"/>
<path d="M13.5019 25.7283L14.0459 25.3112L14.1474 23.9584L12.2781 23.8181L12.201 24.8446L13.5019 25.7283Z" fill="url(#paint33_linear_1250_1493)"/>
<path d="M13.192 0.200068L12.7317 0.708095L12.8745 2.0571L14.7387 1.8597L14.6304 0.836077L13.192 0.200068Z" fill="url(#paint34_linear_1250_1493)"/>
<path d="M14.5152 0.0533556L14.0077 0.514329L14.019 1.87083L15.8936 1.85521L15.885 0.8259L14.5152 0.0533556Z" fill="url(#paint35_linear_1250_1493)"/>
<path d="M16.2572 0.144404L16.7175 0.652431L16.5747 2.00144L14.7105 1.80403L14.8189 0.780412L16.2572 0.144404Z" fill="url(#paint36_linear_1250_1493)"/>
<path d="M14.5425 25.7715L14.0312 25.3148V23.9582H15.9059V24.9875L14.5425 25.7715Z" fill="url(#paint37_linear_1250_1493)"/>
<path d="M17.6066 0.387109L18.0055 0.944675L17.7085 2.26833L15.8794 1.85797L16.1047 0.853594L17.6066 0.387109Z" fill="url(#paint38_linear_1250_1493)"/>
<path d="M18.894 0.775109L19.2491 1.36152L18.8519 2.65862L17.0594 2.10973L17.3608 1.1255L18.894 0.775109Z" fill="url(#paint39_linear_1250_1493)"/>
<path d="M20.1072 1.27557L20.4003 1.8953L19.8722 3.14483L18.1455 2.41501L18.5462 1.46688L20.1072 1.27557Z" fill="url(#paint40_linear_1250_1493)"/>
<path d="M21.3177 1.89994L21.5354 2.55001L20.8631 3.72825L19.2349 2.7992L19.745 1.90516L21.3177 1.89994Z" fill="url(#paint41_linear_1250_1493)"/>
<path d="M22.4143 2.65217L22.5427 3.32559L21.7183 4.40287L20.2296 3.26358L20.8552 2.44614L22.4143 2.65217Z" fill="url(#paint42_linear_1250_1493)"/>
<path d="M23.4661 3.49453L23.5131 4.17847L22.5657 5.14945L21.2239 3.84032L21.9428 3.10355L23.4661 3.49453Z" fill="url(#paint43_linear_1250_1493)"/>
<path d="M24.3937 4.45714L24.3868 5.14266L23.3662 6.03628L22.1313 4.62586L22.9058 3.94779L24.3937 4.45714Z" fill="url(#paint44_linear_1250_1493)"/>
<path d="M25.2213 5.50941L25.155 6.19175L24.0606 6.99332L22.9529 5.48096L23.7833 4.87273L25.2213 5.50941Z" fill="url(#paint45_linear_1250_1493)"/>
<path d="M25.9481 6.63863L25.8014 7.30829L24.6197 7.97453L23.699 6.34155L24.5957 5.83602L25.9481 6.63863Z" fill="url(#paint46_linear_1250_1493)"/>
<path d="M26.5375 7.83646L26.3183 8.48602L25.0707 9.0188L24.3345 7.2948L25.2811 6.89053L26.5375 7.83646Z" fill="url(#paint47_linear_1250_1493)"/>
<path d="M27.0121 9.12179L26.7181 9.74111L25.4166 10.1237L24.8879 8.32514L25.8755 8.03485L27.0121 9.12179Z" fill="url(#paint48_linear_1250_1493)"/>
<path d="M27.3259 10.3917L26.9918 10.9904L25.668 11.2866L25.2586 9.4572L26.2631 9.23243L27.3259 10.3917Z" fill="url(#paint49_linear_1250_1493)"/>
<path d="M27.5349 11.7347L27.123 12.2828L25.7713 12.3975L25.6128 10.5296L26.6385 10.4425L27.5349 11.7347Z" fill="url(#paint50_linear_1250_1493)"/>
<path d="M27.5964 13.0639L27.137 13.5729L25.7805 13.566L25.79 11.6914L26.8194 11.6966L27.5964 13.0639Z" fill="url(#paint51_linear_1250_1493)"/>
<path d="M27.5029 14.4065L26.988 14.8592L25.6413 14.6961L25.8666 12.8351L26.8885 12.9588L27.5029 14.4065Z" fill="url(#paint52_linear_1250_1493)"/>
<path d="M27.2697 15.7441L26.7204 16.1542L25.391 15.8841L25.7642 14.047L26.7729 14.2519L27.2697 15.7441Z" fill="url(#paint53_linear_1250_1493)"/>
<path d="M26.9004 17.0256L26.2997 17.356L25.0203 16.905L25.6435 15.137L26.6143 15.4792L26.9004 17.0256Z" fill="url(#paint54_linear_1250_1493)"/>
<path d="M26.4165 18.2706L25.7858 18.5393L24.5579 17.9627L25.3547 16.2658L26.2864 16.7033L26.4165 18.2706Z" fill="url(#paint55_linear_1250_1493)"/>
<path d="M25.7943 19.4645L25.1414 19.6738L23.972 18.9863L24.9221 17.3703L25.8094 17.8919L25.7943 19.4645Z" fill="url(#paint56_linear_1250_1493)"/>
<path d="M25.0509 20.5782L24.3836 20.7352L23.2721 19.9575L24.3469 18.4215L25.1903 19.0117L25.0509 20.5782Z" fill="url(#paint57_linear_1250_1493)"/>
<path d="M24.1626 21.674L23.4811 21.7479L22.4735 20.8396L23.7287 19.4472L24.4933 20.1364L24.1626 21.674Z" fill="url(#paint58_linear_1250_1493)"/>
<path d="M23.2353 22.537L22.55 22.5553L21.6196 21.5681L22.9838 20.2824L23.6898 21.0314L23.2353 22.537Z" fill="url(#paint59_linear_1250_1493)"/>
<path d="M22.1969 23.3661L21.5164 23.2834L20.7413 22.17L22.2798 21.099L22.8679 21.9437L22.1969 23.3661Z" fill="url(#paint60_linear_1250_1493)"/>
<path d="M21.0942 24.0935L20.4205 23.9662L19.7204 22.8043L21.326 21.8368L21.8573 22.7184L21.0942 24.0935Z" fill="url(#paint61_linear_1250_1493)"/>
<path d="M19.8311 24.6903L19.1879 24.4531L18.6901 23.1911L20.4339 22.5033L20.8117 23.4608L19.8311 24.6903Z" fill="url(#paint62_linear_1250_1493)"/>
<path d="M18.5564 25.1893L17.9288 24.9134L17.5085 23.6236L19.2909 23.0428L19.6098 24.0215L18.5564 25.1893Z" fill="url(#paint63_linear_1250_1493)"/>
<path d="M17.2863 25.4915L16.6947 25.1451L16.4259 23.8154L18.2634 23.444L18.4673 24.453L17.2863 25.4915Z" fill="url(#paint64_linear_1250_1493)"/>
<path d="M15.9473 25.6736L15.4033 25.2565L15.3018 23.9037L17.1712 23.7634L17.2482 24.7899L15.9473 25.6736Z" fill="url(#paint65_linear_1250_1493)"/>
</g>
<path d="M25.8869 12.8809C25.8869 19.0392 20.8947 24.0314 14.7364 24.0314C8.57818 24.0314 3.58594 19.0392 3.58594 12.8809C3.58594 6.72271 8.57818 1.73047 14.7364 1.73047C20.8947 1.73047 25.8869 6.72271 25.8869 12.8809Z" fill="url(#paint66_linear_1250_1493)"/>
<path fill-rule="evenodd" clip-rule="evenodd" d="M14.7237 22.5923C20.0904 22.5923 24.4409 18.2417 24.4409 12.875C24.4409 7.50835 20.0904 3.15779 14.7237 3.15779C9.35698 3.15779 5.00642 7.50835 5.00642 12.875C5.00642 18.2417 9.35698 22.5923 14.7237 22.5923ZM14.7237 22.7706C20.1888 22.7706 24.6192 18.3402 24.6192 12.875C24.6192 7.40988 20.1888 2.97949 14.7237 2.97949C9.25851 2.97949 4.82812 7.40988 4.82812 12.875C4.82812 18.3402 9.25851 22.7706 14.7237 22.7706Z" fill="url(#paint67_linear_1250_1493)"/>
<path fill-rule="evenodd" clip-rule="evenodd" d="M14.7296 22.7696C20.1947 22.7696 24.6251 18.3393 24.6251 12.8741C24.6251 7.40894 20.1947 2.97855 14.7296 2.97855C9.26441 2.97855 4.83402 7.40894 4.83402 12.8741C4.83402 18.3393 9.26441 22.7696 14.7296 22.7696ZM14.7296 24.0177C20.884 24.0177 25.8732 19.0285 25.8732 12.8741C25.8732 6.71964 20.884 1.73047 14.7296 1.73047C8.57511 1.73047 3.58594 6.71964 3.58594 12.8741C3.58594 19.0285 8.57511 24.0177 14.7296 24.0177Z" fill="url(#paint68_linear_1250_1493)"/>
<path fill-rule="evenodd" clip-rule="evenodd" d="M14.7324 22.893C20.2657 22.893 24.7514 18.4073 24.7514 12.874C24.7514 7.3407 20.2657 2.85506 14.7324 2.85506C9.1991 2.85506 4.71345 7.3407 4.71345 12.874C4.71345 18.4073 9.1991 22.893 14.7324 22.893ZM14.7324 23.0713C20.3642 23.0713 24.9297 18.5058 24.9297 12.874C24.9297 7.24223 20.3642 2.67676 14.7324 2.67676C9.10063 2.67676 4.53516 7.24223 4.53516 12.874C4.53516 18.5058 9.10063 23.0713 14.7324 23.0713Z" fill="url(#paint69_linear_1250_1493)"/>
<path fill-rule="evenodd" clip-rule="evenodd" d="M14.7301 24.0045C20.877 24.0045 25.86 19.0215 25.86 12.8746C25.86 6.72773 20.877 1.7447 14.7301 1.7447C8.5832 1.7447 3.60017 6.72773 3.60017 12.8746C3.60017 19.0215 8.5832 24.0045 14.7301 24.0045ZM14.7301 24.1828C20.9754 24.1828 26.0383 19.12 26.0383 12.8746C26.0383 6.62926 20.9754 1.56641 14.7301 1.56641C8.48473 1.56641 3.42188 6.62926 3.42188 12.8746C3.42188 19.12 8.48473 24.1828 14.7301 24.1828Z" fill="url(#paint70_linear_1250_1493)"/>
<defs>
<filter id="filter0_d_1250_1493" x="1.75285" y="0.0537109" width="25.9435" height="26.0111" filterUnits="userSpaceOnUse" color-interpolation-filters="sRGB">
<feFlood flood-opacity="0" result="BackgroundImageFix"/>
<feColorMatrix in="SourceAlpha" type="matrix" values="0 0 0 0 0 0 0 0 0 0 0 0 0 0 0 0 0 0 127 0" result="hardAlpha"/>
<feOffset dy="0.194641"/>
<feGaussianBlur stdDeviation="0.0493554"/>
<feComposite in2="hardAlpha" operator="out"/>
<feColorMatrix type="matrix" values="0 0 0 0 0 0 0 0 0 0 0 0 0 0 0 0 0 0 0.25 0"/>
<feBlend mode="normal" in2="BackgroundImageFix" result="effect1_dropShadow_1250_1493"/>
<feBlend mode="normal" in="SourceGraphic" in2="effect1_dropShadow_1250_1493" result="shape"/>
</filter>
<linearGradient id="paint0_linear_1250_1493" x1="10.4948" y1="20.7031" x2="2.70944" y2="39.7858" gradientUnits="userSpaceOnUse">
<stop offset="0.0779131" stop-color="#710404"/>
<stop offset="0.334434" stop-color="#DB0405"/>
<stop offset="0.640274" stop-color="#C41016"/>
<stop offset="1" stop-color="#D30A0C"/>
</linearGradient>
<linearGradient id="paint1_linear_1250_1493" x1="7.4953" y1="22.2115" x2="0.786852" y2="38.5093" gradientUnits="userSpaceOnUse">
<stop offset="0.0331959" stop-color="#C8AF21"/>
<stop offset="0.261644" stop-color="#FFF9D6"/>
<stop offset="0.408867" stop-color="#CDC017"/>
<stop offset="0.799376" stop-color="#E3D56E"/>
<stop offset="1" stop-color="#E9DB87"/>
</linearGradient>
<linearGradient id="paint2_linear_1250_1493" x1="14.1327" y1="24.9761" x2="7.42425" y2="41.2739" gradientUnits="userSpaceOnUse">
<stop offset="0.0331959" stop-color="#C8AF21"/>
<stop offset="0.261644" stop-color="#FFF9D6"/>
<stop offset="0.408867" stop-color="#CDC017"/>
<stop offset="0.799376" stop-color="#E3D56E"/>
<stop offset="1" stop-color="#E9DB87"/>
</linearGradient>
<linearGradient id="paint3_linear_1250_1493" x1="19.4388" y1="21.4961" x2="27.2242" y2="40.5788" gradientUnits="userSpaceOnUse">
<stop offset="0.0779131" stop-color="#710404"/>
<stop offset="0.334434" stop-color="#DB0405"/>
<stop offset="0.640274" stop-color="#C41016"/>
<stop offset="1" stop-color="#D30A0C"/>
</linearGradient>
<linearGradient id="paint4_linear_1250_1493" x1="22.4383" y1="23.0064" x2="29.1467" y2="39.3042" gradientUnits="userSpaceOnUse">
<stop offset="0.0331959" stop-color="#C8AF21"/>
<stop offset="0.261644" stop-color="#FFF9D6"/>
<stop offset="0.408867" stop-color="#CDC017"/>
<stop offset="0.799376" stop-color="#E3D56E"/>
<stop offset="1" stop-color="#E9DB87"/>
</linearGradient>
<linearGradient id="paint5_linear_1250_1493" x1="15.8009" y1="25.7711" x2="22.5093" y2="42.0689" gradientUnits="userSpaceOnUse">
<stop offset="0.0331959" stop-color="#C8AF21"/>
<stop offset="0.261644" stop-color="#FFF9D6"/>
<stop offset="0.408867" stop-color="#CDC017"/>
<stop offset="0.799376" stop-color="#E3D56E"/>
<stop offset="1" stop-color="#E9DB87"/>
</linearGradient>
<linearGradient id="paint6_linear_1250_1493" x1="11.7255" y1="2.32724" x2="13.3902" y2="1.95588" gradientUnits="userSpaceOnUse">
<stop offset="0.0806686" stop-color="#5E0606"/>
<stop offset="0.316983" stop-color="#FF2525"/>
<stop offset="0.996599" stop-color="#620606"/>
</linearGradient>
<linearGradient id="paint7_linear_1250_1493" x1="10.5823" y1="2.71673" x2="12.2138" y2="2.21929" gradientUnits="userSpaceOnUse">
<stop offset="0.0806686" stop-color="#5E0606"/>
<stop offset="0.316983" stop-color="#FF2525"/>
<stop offset="0.996599" stop-color="#620606"/>
</linearGradient>
<linearGradient id="paint8_linear_1250_1493" x1="9.56232" y1="3.2035" x2="11.1342" y2="2.54135" gradientUnits="userSpaceOnUse">
<stop offset="0.0806686" stop-color="#5E0606"/>
<stop offset="0.316983" stop-color="#FF2525"/>
<stop offset="0.996599" stop-color="#620606"/>
</linearGradient>
<linearGradient id="paint9_linear_1250_1493" x1="8.57201" y1="3.78961" x2="10.0545" y2="2.94608" gradientUnits="userSpaceOnUse">
<stop offset="0.0806686" stop-color="#5E0606"/>
<stop offset="0.316983" stop-color="#FF2525"/>
<stop offset="0.996599" stop-color="#620606"/>
</linearGradient>
<linearGradient id="paint10_linear_1250_1493" x1="7.71768" y1="4.46705" x2="9.07346" y2="3.43208" gradientUnits="userSpaceOnUse">
<stop offset="0.0806686" stop-color="#5E0606"/>
<stop offset="0.316983" stop-color="#FF2525"/>
<stop offset="0.996599" stop-color="#620606"/>
</linearGradient>
<linearGradient id="paint11_linear_1250_1493" x1="6.87122" y1="5.21614" x2="8.09353" y2="4.02647" gradientUnits="userSpaceOnUse">
<stop offset="0.0806686" stop-color="#5E0606"/>
<stop offset="0.316983" stop-color="#FF2525"/>
<stop offset="0.996599" stop-color="#620606"/>
</linearGradient>
<linearGradient id="paint12_linear_1250_1493" x1="6.07151" y1="6.10194" x2="7.19666" y2="4.82" gradientUnits="userSpaceOnUse">
<stop offset="0.0806686" stop-color="#5E0606"/>
<stop offset="0.316983" stop-color="#FF2525"/>
<stop offset="0.996599" stop-color="#620606"/>
</linearGradient>
<linearGradient id="paint13_linear_1250_1493" x1="5.37806" y1="7.05995" x2="6.38759" y2="5.68511" gradientUnits="userSpaceOnUse">
<stop offset="0.0806686" stop-color="#5E0606"/>
<stop offset="0.316983" stop-color="#FF2525"/>
<stop offset="0.996599" stop-color="#620606"/>
</linearGradient>
<linearGradient id="paint14_linear_1250_1493" x1="4.82032" y1="8.04233" x2="5.65981" y2="6.55755" gradientUnits="userSpaceOnUse">
<stop offset="0.0806686" stop-color="#5E0606"/>
<stop offset="0.316983" stop-color="#FF2525"/>
<stop offset="0.996599" stop-color="#620606"/>
</linearGradient>
<linearGradient id="paint15_linear_1250_1493" x1="4.37069" y1="9.08656" x2="5.04248" y2="7.51875" gradientUnits="userSpaceOnUse">
<stop offset="0.0806686" stop-color="#5E0606"/>
<stop offset="0.316983" stop-color="#FF2525"/>
<stop offset="0.996599" stop-color="#620606"/>
</linearGradient>
<linearGradient id="paint16_linear_1250_1493" x1="4.02641" y1="10.1932" x2="4.50941" y2="8.55738" gradientUnits="userSpaceOnUse">
<stop offset="0.0806686" stop-color="#5E0606"/>
<stop offset="0.316983" stop-color="#FF2525"/>
<stop offset="0.996599" stop-color="#620606"/>
</linearGradient>
<linearGradient id="paint17_linear_1250_1493" x1="3.77593" y1="11.3565" x2="4.15041" y2="9.69248" gradientUnits="userSpaceOnUse">
<stop offset="0.0806686" stop-color="#5E0606"/>
<stop offset="0.316983" stop-color="#FF2525"/>
<stop offset="0.996599" stop-color="#620606"/>
</linearGradient>
<linearGradient id="paint18_linear_1250_1493" x1="3.67455" y1="12.467" x2="3.82085" y2="10.7677" gradientUnits="userSpaceOnUse">
<stop offset="0.0806686" stop-color="#5E0606"/>
<stop offset="0.316983" stop-color="#FF2525"/>
<stop offset="0.996599" stop-color="#620606"/>
</linearGradient>
<linearGradient id="paint19_linear_1250_1493" x1="3.66674" y1="13.6367" x2="3.66012" y2="11.9311" gradientUnits="userSpaceOnUse">
<stop offset="0.0806686" stop-color="#5E0606"/>
<stop offset="0.316983" stop-color="#FF2525"/>
<stop offset="0.996599" stop-color="#620606"/>
</linearGradient>
<linearGradient id="paint20_linear_1250_1493" x1="3.80771" y1="14.767" x2="3.60474" y2="13.0735" gradientUnits="userSpaceOnUse">
<stop offset="0.0806686" stop-color="#5E0606"/>
<stop offset="0.316983" stop-color="#FF2525"/>
<stop offset="0.996599" stop-color="#620606"/>
</linearGradient>
<linearGradient id="paint21_linear_1250_1493" x1="4.05922" y1="15.9531" x2="3.72169" y2="14.2811" gradientUnits="userSpaceOnUse">
<stop offset="0.0806686" stop-color="#5E0606"/>
<stop offset="0.316983" stop-color="#FF2525"/>
<stop offset="0.996599" stop-color="#620606"/>
</linearGradient>
<linearGradient id="paint22_linear_1250_1493" x1="4.43198" y1="16.9756" x2="3.86692" y2="15.3663" gradientUnits="userSpaceOnUse">
<stop offset="0.0806686" stop-color="#5E0606"/>
<stop offset="0.316983" stop-color="#FF2525"/>
<stop offset="0.996599" stop-color="#620606"/>
</linearGradient>
<linearGradient id="paint23_linear_1250_1493" x1="4.89589" y1="18.0309" x2="4.17279" y2="16.4861" gradientUnits="userSpaceOnUse">
<stop offset="0.0806686" stop-color="#5E0606"/>
<stop offset="0.316983" stop-color="#FF2525"/>
<stop offset="0.996599" stop-color="#620606"/>
</linearGradient>
<linearGradient id="paint24_linear_1250_1493" x1="5.4831" y1="19.056" x2="4.62044" y2="17.5846" gradientUnits="userSpaceOnUse">
<stop offset="0.0806686" stop-color="#5E0606"/>
<stop offset="0.316983" stop-color="#FF2525"/>
<stop offset="0.996599" stop-color="#620606"/>
</linearGradient>
<linearGradient id="paint25_linear_1250_1493" x1="6.18404" y1="20.0257" x2="5.20781" y2="18.627" gradientUnits="userSpaceOnUse">
<stop offset="0.0806686" stop-color="#5E0606"/>
<stop offset="0.316983" stop-color="#FF2525"/>
<stop offset="0.996599" stop-color="#620606"/>
</linearGradient>
<linearGradient id="paint26_linear_1250_1493" x1="6.98428" y1="20.9078" x2="5.84372" y2="19.6396" gradientUnits="userSpaceOnUse">
<stop offset="0.0806686" stop-color="#5E0606"/>
<stop offset="0.316983" stop-color="#FF2525"/>
<stop offset="0.996599" stop-color="#620606"/>
</linearGradient>
<linearGradient id="paint27_linear_1250_1493" x1="7.8392" y1="21.6337" x2="6.59937" y2="20.4623" gradientUnits="userSpaceOnUse">
<stop offset="0.0806686" stop-color="#5E0606"/>
<stop offset="0.316983" stop-color="#FF2525"/>
<stop offset="0.996599" stop-color="#620606"/>
</linearGradient>
<linearGradient id="paint28_linear_1250_1493" x1="8.71912" y1="22.236" x2="7.32045" y2="21.2598" gradientUnits="userSpaceOnUse">
<stop offset="0.0806686" stop-color="#5E0606"/>
<stop offset="0.316983" stop-color="#FF2525"/>
<stop offset="0.996599" stop-color="#620606"/>
</linearGradient>
<linearGradient id="paint29_linear_1250_1493" x1="9.7407" y1="22.8676" x2="8.28083" y2="21.9855" gradientUnits="userSpaceOnUse">
<stop offset="0.0806686" stop-color="#5E0606"/>
<stop offset="0.316983" stop-color="#FF2525"/>
<stop offset="0.996599" stop-color="#620606"/>
</linearGradient>
<linearGradient id="paint30_linear_1250_1493" x1="10.7724" y1="23.2533" x2="9.18649" y2="22.6255" gradientUnits="userSpaceOnUse">
<stop offset="0.0806686" stop-color="#5E0606"/>
<stop offset="0.316983" stop-color="#FF2525"/>
<stop offset="0.996599" stop-color="#620606"/>
</linearGradient>
<linearGradient id="paint31_linear_1250_1493" x1="11.9544" y1="23.6849" x2="10.3333" y2="23.1545" gradientUnits="userSpaceOnUse">
<stop offset="0.0806686" stop-color="#5E0606"/>
<stop offset="0.316983" stop-color="#FF2525"/>
<stop offset="0.996599" stop-color="#620606"/>
</linearGradient>
<linearGradient id="paint32_linear_1250_1493" x1="13.0377" y1="23.8761" x2="11.3663" y2="23.5361" gradientUnits="userSpaceOnUse">
<stop offset="0.0806686" stop-color="#5E0606"/>
<stop offset="0.316983" stop-color="#FF2525"/>
<stop offset="0.996599" stop-color="#620606"/>
</linearGradient>
<linearGradient id="paint33_linear_1250_1493" x1="14.1623" y1="23.9616" x2="12.4616" y2="23.8319" gradientUnits="userSpaceOnUse">
<stop offset="0.0806686" stop-color="#5E0606"/>
<stop offset="0.316983" stop-color="#FF2525"/>
<stop offset="0.996599" stop-color="#620606"/>
</linearGradient>
<linearGradient id="paint34_linear_1250_1493" x1="12.8593" y1="2.05664" x2="14.5557" y2="1.87908" gradientUnits="userSpaceOnUse">
<stop offset="0.0806686" stop-color="#5E0606"/>
<stop offset="0.316983" stop-color="#FF2525"/>
<stop offset="0.996599" stop-color="#620606"/>
</linearGradient>
<linearGradient id="paint35_linear_1250_1493" x1="14.0039" y1="1.8689" x2="15.7095" y2="1.85674" gradientUnits="userSpaceOnUse">
<stop offset="0.0806686" stop-color="#5E0606"/>
<stop offset="0.316983" stop-color="#FF2525"/>
<stop offset="0.996599" stop-color="#620606"/>
</linearGradient>
<linearGradient id="paint36_linear_1250_1493" x1="16.5899" y1="2.00098" x2="14.8935" y2="1.82341" gradientUnits="userSpaceOnUse">
<stop offset="0.0806686" stop-color="#5E0606"/>
<stop offset="0.316983" stop-color="#FF2525"/>
<stop offset="0.996599" stop-color="#620606"/>
</linearGradient>
<linearGradient id="paint37_linear_1250_1493" x1="14.0162" y1="23.9603" x2="15.7218" y2="23.9582" gradientUnits="userSpaceOnUse">
<stop offset="0.0806686" stop-color="#5E0606"/>
<stop offset="0.316983" stop-color="#FF2525"/>
<stop offset="0.996599" stop-color="#620606"/>
</linearGradient>
<linearGradient id="paint38_linear_1250_1493" x1="17.7237" y1="2.26962" x2="16.059" y2="1.89826" gradientUnits="userSpaceOnUse">
<stop offset="0.0806686" stop-color="#5E0606"/>
<stop offset="0.316983" stop-color="#FF2525"/>
<stop offset="0.996599" stop-color="#620606"/>
</linearGradient>
<linearGradient id="paint39_linear_1250_1493" x1="18.8669" y1="2.66107" x2="17.2354" y2="2.16362" gradientUnits="userSpaceOnUse">
<stop offset="0.0806686" stop-color="#5E0606"/>
<stop offset="0.316983" stop-color="#FF2525"/>
<stop offset="0.996599" stop-color="#620606"/>
</linearGradient>
<linearGradient id="paint40_linear_1250_1493" x1="19.8869" y1="3.14881" x2="18.315" y2="2.48667" gradientUnits="userSpaceOnUse">
<stop offset="0.0806686" stop-color="#5E0606"/>
<stop offset="0.316983" stop-color="#FF2525"/>
<stop offset="0.996599" stop-color="#620606"/>
</linearGradient>
<linearGradient id="paint41_linear_1250_1493" x1="20.8772" y1="3.73395" x2="19.3947" y2="2.89041" gradientUnits="userSpaceOnUse">
<stop offset="0.0806686" stop-color="#5E0606"/>
<stop offset="0.316983" stop-color="#FF2525"/>
<stop offset="0.996599" stop-color="#620606"/>
</linearGradient>
<linearGradient id="paint42_linear_1250_1493" x1="21.7315" y1="4.41041" x2="20.3758" y2="3.37543" gradientUnits="userSpaceOnUse">
<stop offset="0.0806686" stop-color="#5E0606"/>
<stop offset="0.316983" stop-color="#FF2525"/>
<stop offset="0.996599" stop-color="#620606"/>
</linearGradient>
<linearGradient id="paint43_linear_1250_1493" x1="22.578" y1="5.15852" x2="21.3557" y2="3.96886" gradientUnits="userSpaceOnUse">
<stop offset="0.0806686" stop-color="#5E0606"/>
<stop offset="0.316983" stop-color="#FF2525"/>
<stop offset="0.996599" stop-color="#620606"/>
</linearGradient>
<linearGradient id="paint44_linear_1250_1493" x1="23.3777" y1="6.04628" x2="22.2526" y2="4.76434" gradientUnits="userSpaceOnUse">
<stop offset="0.0806686" stop-color="#5E0606"/>
<stop offset="0.316983" stop-color="#FF2525"/>
<stop offset="0.996599" stop-color="#620606"/>
</linearGradient>
<linearGradient id="paint45_linear_1250_1493" x1="24.0712" y1="7.00429" x2="23.0616" y2="5.62945" gradientUnits="userSpaceOnUse">
<stop offset="0.0806686" stop-color="#5E0606"/>
<stop offset="0.316983" stop-color="#FF2525"/>
<stop offset="0.996599" stop-color="#620606"/>
</linearGradient>
<linearGradient id="paint46_linear_1250_1493" x1="24.6289" y1="7.98667" x2="23.7894" y2="6.50188" gradientUnits="userSpaceOnUse">
<stop offset="0.0806686" stop-color="#5E0606"/>
<stop offset="0.316983" stop-color="#FF2525"/>
<stop offset="0.996599" stop-color="#620606"/>
</linearGradient>
<linearGradient id="paint47_linear_1250_1493" x1="25.0785" y1="9.03187" x2="24.4067" y2="7.46406" gradientUnits="userSpaceOnUse">
<stop offset="0.0806686" stop-color="#5E0606"/>
<stop offset="0.316983" stop-color="#FF2525"/>
<stop offset="0.996599" stop-color="#620606"/>
</linearGradient>
<linearGradient id="paint48_linear_1250_1493" x1="25.4228" y1="10.1376" x2="24.9398" y2="8.50172" gradientUnits="userSpaceOnUse">
<stop offset="0.0806686" stop-color="#5E0606"/>
<stop offset="0.316983" stop-color="#FF2525"/>
<stop offset="0.996599" stop-color="#620606"/>
</linearGradient>
<linearGradient id="paint49_linear_1250_1493" x1="25.6733" y1="11.3009" x2="25.2988" y2="9.63682" gradientUnits="userSpaceOnUse">
<stop offset="0.0806686" stop-color="#5E0606"/>
<stop offset="0.316983" stop-color="#FF2525"/>
<stop offset="0.996599" stop-color="#620606"/>
</linearGradient>
<linearGradient id="paint50_linear_1250_1493" x1="25.7747" y1="12.4124" x2="25.6284" y2="10.713" gradientUnits="userSpaceOnUse">
<stop offset="0.0806686" stop-color="#5E0606"/>
<stop offset="0.316983" stop-color="#FF2525"/>
<stop offset="0.996599" stop-color="#620606"/>
</linearGradient>
<linearGradient id="paint51_linear_1250_1493" x1="25.7825" y1="13.5811" x2="25.7891" y2="11.8754" gradientUnits="userSpaceOnUse">
<stop offset="0.0806686" stop-color="#5E0606"/>
<stop offset="0.316983" stop-color="#FF2525"/>
<stop offset="0.996599" stop-color="#620606"/>
</linearGradient>
<linearGradient id="paint52_linear_1250_1493" x1="25.6415" y1="14.7113" x2="25.8445" y2="13.0178" gradientUnits="userSpaceOnUse">
<stop offset="0.0806686" stop-color="#5E0606"/>
<stop offset="0.316983" stop-color="#FF2525"/>
<stop offset="0.996599" stop-color="#620606"/>
</linearGradient>
<linearGradient id="paint53_linear_1250_1493" x1="25.39" y1="15.8994" x2="25.7275" y2="14.2274" gradientUnits="userSpaceOnUse">
<stop offset="0.0806686" stop-color="#5E0606"/>
<stop offset="0.316983" stop-color="#FF2525"/>
<stop offset="0.996599" stop-color="#620606"/>
</linearGradient>
<linearGradient id="paint54_linear_1250_1493" x1="25.0172" y1="16.92" x2="25.5823" y2="15.3106" gradientUnits="userSpaceOnUse">
<stop offset="0.0806686" stop-color="#5E0606"/>
<stop offset="0.316983" stop-color="#FF2525"/>
<stop offset="0.996599" stop-color="#620606"/>
</linearGradient>
<linearGradient id="paint55_linear_1250_1493" x1="24.5533" y1="17.9772" x2="25.2764" y2="16.4324" gradientUnits="userSpaceOnUse">
<stop offset="0.0806686" stop-color="#5E0606"/>
<stop offset="0.316983" stop-color="#FF2525"/>
<stop offset="0.996599" stop-color="#620606"/>
</linearGradient>
<linearGradient id="paint56_linear_1250_1493" x1="23.9661" y1="19.0004" x2="24.8288" y2="17.5289" gradientUnits="userSpaceOnUse">
<stop offset="0.0806686" stop-color="#5E0606"/>
<stop offset="0.316983" stop-color="#FF2525"/>
<stop offset="0.996599" stop-color="#620606"/>
</linearGradient>
<linearGradient id="paint57_linear_1250_1493" x1="23.2652" y1="19.971" x2="24.2414" y2="18.5723" gradientUnits="userSpaceOnUse">
<stop offset="0.0806686" stop-color="#5E0606"/>
<stop offset="0.316983" stop-color="#FF2525"/>
<stop offset="0.996599" stop-color="#620606"/>
</linearGradient>
<linearGradient id="paint58_linear_1250_1493" x1="22.4649" y1="20.8522" x2="23.6055" y2="19.5839" gradientUnits="userSpaceOnUse">
<stop offset="0.0806686" stop-color="#5E0606"/>
<stop offset="0.316983" stop-color="#FF2525"/>
<stop offset="0.996599" stop-color="#620606"/>
</linearGradient>
<linearGradient id="paint59_linear_1250_1493" x1="21.61" y1="21.58" x2="22.8498" y2="20.4086" gradientUnits="userSpaceOnUse">
<stop offset="0.0806686" stop-color="#5E0606"/>
<stop offset="0.316983" stop-color="#FF2525"/>
<stop offset="0.996599" stop-color="#620606"/>
</linearGradient>
<linearGradient id="paint60_linear_1250_1493" x1="20.7301" y1="22.1804" x2="22.1288" y2="21.2041" gradientUnits="userSpaceOnUse">
<stop offset="0.0806686" stop-color="#5E0606"/>
<stop offset="0.316983" stop-color="#FF2525"/>
<stop offset="0.996599" stop-color="#620606"/>
</linearGradient>
<linearGradient id="paint61_linear_1250_1493" x1="19.7085" y1="22.8139" x2="21.1684" y2="21.9318" gradientUnits="userSpaceOnUse">
<stop offset="0.0806686" stop-color="#5E0606"/>
<stop offset="0.316983" stop-color="#FF2525"/>
<stop offset="0.996599" stop-color="#620606"/>
</linearGradient>
<linearGradient id="paint62_linear_1250_1493" x1="18.6768" y1="23.1986" x2="20.2627" y2="22.5708" gradientUnits="userSpaceOnUse">
<stop offset="0.0806686" stop-color="#5E0606"/>
<stop offset="0.316983" stop-color="#FF2525"/>
<stop offset="0.996599" stop-color="#620606"/>
</linearGradient>
<linearGradient id="paint63_linear_1250_1493" x1="17.4948" y1="23.6302" x2="19.1159" y2="23.0998" gradientUnits="userSpaceOnUse">
<stop offset="0.0806686" stop-color="#5E0606"/>
<stop offset="0.316983" stop-color="#FF2525"/>
<stop offset="0.996599" stop-color="#620606"/>
</linearGradient>
<linearGradient id="paint64_linear_1250_1493" x1="16.4115" y1="23.8205" x2="18.0829" y2="23.4805" gradientUnits="userSpaceOnUse">
<stop offset="0.0806686" stop-color="#5E0606"/>
<stop offset="0.316983" stop-color="#FF2525"/>
<stop offset="0.996599" stop-color="#620606"/>
</linearGradient>
<linearGradient id="paint65_linear_1250_1493" x1="15.2869" y1="23.9069" x2="16.9876" y2="23.7772" gradientUnits="userSpaceOnUse">
<stop offset="0.0806686" stop-color="#5E0606"/>
<stop offset="0.316983" stop-color="#FF2525"/>
<stop offset="0.996599" stop-color="#620606"/>
</linearGradient>
<linearGradient id="paint66_linear_1250_1493" x1="22.3278" y1="3.22543" x2="7.08332" y2="21.3912" gradientUnits="userSpaceOnUse">
<stop offset="0.0845806" stop-color="#FFED6F"/>
<stop offset="0.400295" stop-color="#F5EFC3"/>
<stop offset="1" stop-color="#CE9626"/>
</linearGradient>
<linearGradient id="paint67_linear_1250_1493" x1="14.7237" y1="2.97949" x2="14.7237" y2="22.7706" gradientUnits="userSpaceOnUse">
<stop stop-color="#795B0F"/>
<stop offset="0.472948" stop-color="#2B150D"/>
<stop offset="1" stop-color="#7F6616"/>
</linearGradient>
<linearGradient id="paint68_linear_1250_1493" x1="14.7296" y1="1.73047" x2="14.7296" y2="24.0177" gradientUnits="userSpaceOnUse">
<stop stop-color="#DED26D"/>
<stop offset="0.529154" stop-color="#F3EFCB"/>
<stop offset="0.546976" stop-color="#6C3A0F"/>
<stop offset="0.836444" stop-color="#BCB73D"/>
<stop offset="1" stop-color="#EDDB8D"/>
</linearGradient>
<linearGradient id="paint69_linear_1250_1493" x1="14.7324" y1="2.67676" x2="14.7324" y2="23.0713" gradientUnits="userSpaceOnUse">
<stop stop-color="#843208"/>
<stop offset="0.559181" stop-color="#DABC38"/>
<stop offset="1" stop-color="#873809"/>
</linearGradient>
<linearGradient id="paint70_linear_1250_1493" x1="14.7301" y1="1.56641" x2="14.7301" y2="24.1828" gradientUnits="userSpaceOnUse">
<stop stop-color="#E3BC17"/>
<stop offset="0.467085" stop-color="#985516"/>
<stop offset="1" stop-color="#925718"/>
</linearGradient>
</defs>
</svg>
