<?xml version="1.0" encoding="utf-8"?>
<!-- Generator: Adobe Illustrator 23.0.2, SVG Export Plug-In . SVG Version: 6.00 Build 0)  -->
<svg version="1.1" id="Layer_1" xmlns="http://www.w3.org/2000/svg" xmlns:xlink="http://www.w3.org/1999/xlink" x="0px" y="0px"
	 viewBox="0 0 512 200.4" style="enable-background:new 0 0 512 200.4;" xml:space="preserve">
<style type="text/css">
	.st0{opacity:0.5;fill:#1C76B9;}
	.st1{fill:#1C76B9;}
	.st2{fill:#004466;}
	.st3{fill:none;stroke:#004466;stroke-width:2;stroke-miterlimit:10;}
</style>
<g>
	<line class="st0" x1="89.2" y1="81" x2="89.2" y2="81"/>
	<line class="st0" x1="95.9" y1="92.2" x2="95.9" y2="92.2"/>
	<g>
		<path class="st1" d="M189.5,58c-0.4-0.4-1.3-1-2.4-1.8c-1.2-0.7-2.6-1.5-4.3-2.2c-1.7-0.8-3.5-1.4-5.5-1.9c-2-0.5-4-0.8-6-0.8
			c-3.6,0-6.3,0.7-8.1,1.9c-1.8,1.3-2.7,3.2-2.7,5.6c0,1.8,0.6,3.3,1.7,4.4s2.9,2,5.2,2.8c2.3,0.8,5.2,1.6,8.6,2.5
			c4.5,1.1,8.3,2.4,11.6,3.9c3.3,1.6,5.8,3.6,7.5,6.1c1.7,2.5,2.6,5.8,2.6,10c0,3.5-0.7,6.6-2,9.1c-1.3,2.5-3.2,4.6-5.5,6.2
			c-2.3,1.6-5,2.8-8,3.5c-3,0.7-6.2,1.1-9.6,1.1c-3.4,0-6.7-0.4-10.1-1.1c-3.4-0.7-6.6-1.7-9.7-3c-3.1-1.3-6-2.9-8.6-4.7l5.8-11.4
			c0.6,0.6,1.6,1.3,3.1,2.2c1.5,0.9,3.2,1.8,5.3,2.8c2.1,0.9,4.4,1.7,6.9,2.3c2.5,0.6,5,1,7.5,1c3.6,0,6.3-0.6,8.1-1.7
			c1.8-1.2,2.7-2.9,2.7-5.1c0-2-0.7-3.6-2.1-4.8c-1.4-1.2-3.5-2.2-6.1-3c-2.6-0.9-5.7-1.8-9.3-2.7c-4.3-1.2-7.9-2.6-10.7-4.1
			c-2.8-1.5-5-3.4-6.4-5.7c-1.4-2.2-2.1-5.1-2.1-8.5c0-4.6,1.1-8.5,3.3-11.6c2.2-3.1,5.2-5.5,9-7.1c3.8-1.6,7.9-2.4,12.5-2.4
			c3.2,0,6.2,0.4,9,1.1c2.8,0.7,5.5,1.6,8,2.8c2.5,1.1,4.7,2.4,6.7,3.7L189.5,58z"/>
		<path class="st1" d="M264.6,40.2V108h-13.1V79.1h-30.7V108h-13.2V40.2h13.2v27.4h30.7V40.2H264.6z"/>
		<path class="st1" d="M297.2,40.2h13.4l24.9,67.8h-13.6l-5.6-16.9h-24.9l-5.7,16.9h-13.6L297.2,40.2z M313.2,81.8l-9.3-28l-9.4,28
			H313.2z"/>
		<path class="st1" d="M342.9,108V40.2H356v56.2h34.5V108H342.9z"/>
		<path class="st1" d="M398.6,108V40.2h13.2V108H398.6z"/>
		<path class="st1" d="M439.1,64.5V108h-13.2V40.2h10.6l34.9,44.7V40.3h13.1V108h-10.9L439.1,64.5z"/>
	</g>
	<g>
		<path class="st1" d="M144.2,198.1v-58.9h20c6.3,0,11.5,1.3,15.6,3.9c4.2,2.6,7.3,6.2,9.4,10.6c2.1,4.5,3.2,9.4,3.2,14.8
			c0,6-1.1,11.2-3.4,15.6c-2.3,4.4-5.6,7.9-9.8,10.3c-4.2,2.4-9.2,3.7-15,3.7H144.2z M186.6,168.5c0-4.7-0.9-8.9-2.6-12.5
			c-1.7-3.7-4.3-6.5-7.6-8.6c-3.3-2.1-7.4-3.1-12.2-3.1H150v48.6h14.2c4.9,0,9-1.1,12.3-3.2c3.3-2.2,5.8-5.1,7.6-8.8
			C185.7,177.2,186.6,173.1,186.6,168.5z"/>
		<path class="st1" d="M243.1,192.9v5.1h-39.6v-58.9h38.8v5.1h-33v21.2h28.8v4.9h-28.8v22.5H243.1z"/>
		<path class="st1" d="M288.2,150.2c-0.8-0.9-1.8-1.8-2.9-2.5c-1.1-0.7-2.4-1.4-3.7-2c-1.4-0.6-2.9-1-4.4-1.3
			c-1.6-0.3-3.3-0.5-5-0.5c-5.1,0-8.9,1-11.3,2.9c-2.4,2-3.6,4.6-3.6,8c0,2.3,0.6,4.1,1.7,5.5c1.1,1.3,2.9,2.4,5.4,3.2
			c2.4,0.8,5.5,1.7,9.3,2.6c4.2,0.9,7.8,1.9,10.9,3.1c3,1.2,5.4,2.9,7.1,4.9c1.7,2.1,2.5,4.9,2.5,8.4c0,2.7-0.5,5.1-1.6,7
			c-1.1,2-2.5,3.6-4.4,5c-1.9,1.3-4.1,2.3-6.7,2.9c-2.6,0.6-5.5,1-8.5,1c-3,0-6-0.3-8.8-1c-2.8-0.6-5.4-1.6-7.9-2.8
			c-2.5-1.2-4.8-2.8-7-4.8l2.9-4.7c1.1,1.1,2.3,2.1,3.8,3.1c1.5,1,3.1,1.8,4.9,2.6c1.8,0.8,3.7,1.4,5.8,1.8c2.1,0.4,4.2,0.6,6.4,0.6
			c4.7,0,8.4-0.9,11-2.6c2.6-1.7,3.9-4.3,3.9-7.6c0-2.4-0.7-4.4-2-5.8c-1.3-1.5-3.3-2.7-6-3.6c-2.7-0.9-5.9-1.9-9.8-2.7
			c-4.1-0.9-7.6-2-10.4-3.1c-2.8-1.2-4.9-2.7-6.3-4.6c-1.4-1.9-2.1-4.4-2.1-7.6c0-3.6,0.9-6.7,2.7-9.2c1.8-2.5,4.3-4.4,7.4-5.7
			c3.2-1.3,6.8-1.9,10.9-1.9c2.6,0,5,0.3,7.3,0.8c2.2,0.5,4.3,1.3,6.2,2.3c1.9,1,3.7,2.2,5.4,3.7L288.2,150.2z"/>
		<path class="st1" d="M304.1,198.1v-58.9h5.8v58.9H304.1z"/>
		<path class="st1" d="M348.3,198.5c-3.9,0-7.6-0.8-11-2.5c-3.4-1.7-6.3-4-8.8-6.8c-2.5-2.9-4.4-6.1-5.8-9.6c-1.4-3.5-2-7.2-2-11
			c0-4,0.7-7.8,2-11.3c1.4-3.6,3.2-6.7,5.7-9.5c2.4-2.8,5.3-5,8.6-6.6c3.3-1.6,6.9-2.4,10.9-2.4c5.8,0,10.5,1.2,14.2,3.6
			c3.7,2.4,6.4,5.5,8.3,9.3l-4.5,3c-1.9-3.7-4.4-6.3-7.6-8.1c-3.2-1.7-6.7-2.6-10.5-2.6c-3.3,0-6.2,0.7-8.8,2.1
			c-2.6,1.4-4.9,3.2-6.8,5.6s-3.3,5-4.3,7.9c-1,2.9-1.5,6-1.5,9.1c0,3.3,0.6,6.5,1.7,9.4c1.1,3,2.7,5.6,4.7,7.9
			c2,2.3,4.4,4.1,7.1,5.4c2.7,1.3,5.6,2,8.7,2c3.6,0,7-0.9,10.2-2.7c3.2-1.8,6.3-4.6,9.2-8.3v6.1C362.6,195.1,356,198.5,348.3,198.5
			z M367.3,173.6h-13.1v-4.5h18v29h-4.9V173.6z"/>
		<path class="st1" d="M389.9,149.8v48.2h-5.8v-58.9h4.8l38.7,49.1v-49.1h5.8v58.8H428L389.9,149.8z"/>
		<path class="st1" d="M482.6,150.2c-0.8-0.9-1.8-1.8-2.9-2.5c-1.1-0.7-2.4-1.4-3.7-2c-1.4-0.6-2.9-1-4.4-1.3
			c-1.6-0.3-3.3-0.5-5-0.5c-5.1,0-8.9,1-11.3,2.9c-2.4,2-3.6,4.6-3.6,8c0,2.3,0.6,4.1,1.7,5.5c1.1,1.3,2.9,2.4,5.4,3.2
			c2.4,0.8,5.5,1.7,9.3,2.6c4.2,0.9,7.8,1.9,10.9,3.1c3,1.2,5.4,2.9,7.1,4.9c1.7,2.1,2.5,4.9,2.5,8.4c0,2.7-0.5,5.1-1.6,7
			c-1.1,2-2.5,3.6-4.4,5c-1.9,1.3-4.1,2.3-6.7,2.9c-2.6,0.6-5.5,1-8.5,1c-3,0-6-0.3-8.8-1c-2.8-0.6-5.4-1.6-7.9-2.8
			c-2.5-1.2-4.8-2.8-7-4.8l2.9-4.7c1.1,1.1,2.3,2.1,3.8,3.1c1.5,1,3.1,1.8,4.9,2.6c1.8,0.8,3.7,1.4,5.8,1.8c2.1,0.4,4.2,0.6,6.4,0.6
			c4.7,0,8.4-0.9,11-2.6c2.6-1.7,3.9-4.3,3.9-7.6c0-2.4-0.7-4.4-2-5.8c-1.3-1.5-3.3-2.7-6-3.6c-2.7-0.9-5.9-1.9-9.8-2.7
			c-4.1-0.9-7.6-2-10.4-3.1c-2.8-1.2-4.9-2.7-6.3-4.6c-1.4-1.9-2.1-4.4-2.1-7.6c0-3.6,0.9-6.7,2.7-9.2c1.8-2.5,4.3-4.4,7.4-5.7
			c3.2-1.3,6.8-1.9,10.9-1.9c2.6,0,5,0.3,7.3,0.8c2.2,0.5,4.3,1.3,6.2,2.3c1.9,1,3.7,2.2,5.4,3.7L482.6,150.2z"/>
	</g>
	<g>
		<g>
			<path class="st1" d="M92.6,187.1h11.6v11.4H25.9v-39.2c0-3.9,0.6-7.6,1.6-11.1c2.5-8.6,7.9-15.9,15.1-21c1.4-1,3.3-0.6,4.2,0.9
				l2.6,4.5c0.6,1.1,0.3,2.5-0.7,3.2c-4.4,3.1-7.9,7.4-10,12.4c-1.4,3.4-2.2,7.2-2.2,11.1c0,16.5,13.9,29.7,30.6,28.6
				c4.4-0.3,8.5-1.6,12.2-3.7c8.4-4.8,14.2-13.7,14.5-23.8c0.1-1.2,0-2.4-0.1-3.5c-0.2-3.1-1-6-2.1-8.7c-2.3-5.4-6.1-9.9-11-13
				l-2.3-1.3l-22-12.7L45.3,115l-0.2-0.1C33.5,108.1,25.6,95.5,25.6,81v-0.2c0-0.1,0-0.2,0-0.3c0.2-10.9,4.7-20.7,12-27.7v0h-12
				V41.9h68.8v9.7h9.5v28.8h0c0.2,13.1-6.1,24.8-15.8,32c-1.3,1-3.1,0.6-4.1-0.7l-3.2-4.7c-0.6-0.9-0.4-2.1,0.5-2.7
				c7.3-5.2,12.1-13.7,12.1-23.4c0-0.2,0-0.4,0-0.6c-0.3-16.2-14-29-30.5-28c-11.7,0.7-21.6,8.7-25.3,19.4c-0.9,2.6-1.4,5.4-1.5,8.2
				c0,0.1,0,0.2,0,0.4c0,0.1,0,0.2,0,0.3c-0.1,10.4,5.4,19.6,13.7,24.7l1.3,0.7l22.5,12.9l7.5,4.3l2.5,1.4l1.7,1l0.1,0
				c8.2,5,14.3,12.9,17.1,22.3c0.8,2.8,1.3,5.7,1.5,8.7c0.1,0.8,0.1,1.6,0.1,2.4C104.2,170.2,99.7,180,92.6,187.1z"/>
		</g>
		<g>
			<rect x="101.3" y="38.8" class="st2" width="6" height="6"/>
			<rect x="94.6" y="32" class="st3" width="19.5" height="19.5"/>
			<line class="st3" x1="114" y1="41.8" x2="144.2" y2="41.8"/>
			<line class="st3" x1="25.6" y1="41.8" x2="94.6" y2="41.8"/>
			<line class="st3" x1="103.9" y1="51.5" x2="103.9" y2="81.6"/>
			<line class="st3" x1="103.9" y1="1.9" x2="103.9" y2="32"/>
		</g>
	</g>
</g>
</svg>
