<svg width="180" height="200" viewBox="0 0 180 200" fill="none" xmlns="http://www.w3.org/2000/svg">
<path d="M110.6 188.1H122.2V199.5H43.9V160.3C43.9 156.4 44.5 152.7 45.5 149.2C48 140.6 53.4 133.3 60.6 128.2C62 127.2 63.9 127.6 64.8 129.1L67.4 133.6C68 134.7 67.7 136.1 66.7 136.8C62.3 139.9 58.8 144.2 56.7 149.2C55.3 152.6 54.5 156.4 54.5 160.3C54.5 176.8 68.4 190 85.1 188.9C89.5 188.6 93.6 187.3 97.3 185.2C105.7 180.4 111.5 171.5 111.8 161.4C111.9 160.2 111.8 159 111.7 157.9C111.5 154.8 110.7 151.9 109.6 149.2C107.3 143.8 103.5 139.3 98.6 136.2L96.3 134.9L74.3 122.2L63.3 116L63.1 115.9C51.5 109.1 43.6 96.5 43.6 82V81.8C43.6 81.7 43.6 81.6 43.6 81.5C43.8 70.6 48.3 60.8 55.6 53.8H43.6V42.9H112.4V52.6H121.9V81.4C122.1 94.5 115.8 106.2 106.1 113.4C104.8 114.4 103 114 102 112.7L98.8 108C98.2 107.1 98.4 105.9 99.3 105.3C106.6 100.1 111.4 91.6 111.4 81.9C111.4 81.7 111.4 81.5 111.4 81.3C111.1 65.1 97.4 52.3 80.9 53.3C69.2 54 59.3 62 55.6 72.7C54.7 75.3 54.2 78.1 54.1 80.9C54.1 81 54.1 81.1 54.1 81.3C54.1 81.4 54.1 81.5 54.1 81.6C54 92 59.5 101.2 67.8 106.3L69.1 107L91.6 119.9L99.1 124.2L101.6 125.6L103.3 126.6H103.4C111.6 131.6 117.7 139.5 120.5 148.9C121.3 151.7 121.8 154.6 122 157.6C122.1 158.4 122.1 159.2 122.1 160C122.2 171.2 117.7 181 110.6 188.1Z" fill="#1C76B9"/>
<path d="M125.3 39.8H119.3V45.8H125.3V39.8Z" fill="#004466"/>
<path d="M132.1 33H112.6V52.5H132.1V33Z" stroke="#004466" stroke-width="2" stroke-miterlimit="10"/>
<path d="M132 42.8H162.2" stroke="#004466" stroke-width="2" stroke-miterlimit="10"/>
<path d="M43.6 42.8H112.6" stroke="#004466" stroke-width="2" stroke-miterlimit="10"/>
<path d="M121.9 52.5V82.6" stroke="#004466" stroke-width="2" stroke-miterlimit="10"/>
<path d="M121.9 2.90002V33" stroke="#004466" stroke-width="2" stroke-miterlimit="10"/>
</svg>
